Coordinates
nRows=17
nColumns=24

# SIMM Motion File Header:
name Coordinates
datacolumns 24
datarows 17
otherdata 1
range 0.42366999999999999000 0.43967000000000001000
endheader
time	pelvis_tx	pelvis_ty	pelvis_tz	pelvis_tilt	pelvis_list	pelvis_rotation	hip_flexion_r	hip_adduction_r	hip_rotation_r	knee_angle_r	ankle_angle_r	subtalar_angle_r	mtp_angle_r	hip_flexion_l	hip_adduction_l	hip_rotation_l	knee_angle_l	ankle_angle_l	subtalar_angle_l	mtp_angle_l	lumbar_extension	lumbar_bending	lumbar_rotation
      0.42366999999999999000	      1.26900794333172890000	      0.86581341727079830000	     -0.25640170406929891000	      0.52916359976025873000	     -3.91633699640908080000	      3.27745050405733670000	     21.67423849534010600000	      3.72519557824170540000	     -3.66521257983134860000	    -20.78249553497916600000	     -0.19087646108591835000	      0.00000000000001280446	     -0.00000000000010856921	     -5.23075293979566690000	     -8.96827298198558330000	     -3.55592526912156350000	    -52.03858348352446900000	     -6.62568494705262800000	      0.00000000000015872150	     -0.00000000000041036556	    -10.01460938620416600000	      8.28249075574893820000	      5.00917322392590330000
      0.42466999999999999000	      1.27116713462565460000	      0.86589055820663063000	     -0.25609175843362347000	      0.53160436001578648000	     -4.01818428614225540000	      3.20503847183795850000	     21.57446064387514900000	      3.88548482196383650000	     -3.68408367436426150000	    -20.86510949064597400000	     -0.03715525579590372300	      0.00000000000001287688	     -0.00000000000010915130	     -5.00143698812911360000	     -9.06041040822774950000	     -3.53278336525016230000	    -52.48246305101309200000	     -6.52106703551106380000	      0.00000000000015946367	     -0.00000000000041138533	     -9.99412896986415510000	      8.35601305960747350000	      5.19674381836254540000
      0.42566999999999999000	      1.27332632591958020000	      0.86596769914246308000	     -0.25578181279794804000	      0.53404512027131423000	     -4.12003157587543000000	      3.13262643961858030000	     21.47468279241019600000	      4.04577406568596840000	     -3.70295476889717450000	    -20.94772344631278200000	      0.11656594949411089000	      0.00000000000001294930	     -0.00000000000010973338	     -4.77212103646255950000	     -9.15254783446991560000	     -3.50964146137876120000	    -52.92634261850172100000	     -6.41644912396949960000	      0.00000000000016020584	     -0.00000000000041240510	     -9.97364855352414460000	      8.42953536346600710000	      5.38431441279918670000
      0.42666999999999999000	      1.27547928534427580000	      0.86605203536951314000	     -0.25547252879744481000	      0.53456314987782949000	     -4.22107305065425550000	      3.06147336642264540000	     21.36978243736232500000	      4.20396929458716340000	     -3.72392188209211610000	    -21.01847019242837400000	      0.27169099771313765000	      0.00000000000001304559	     -0.00000000000011039920	     -4.53850650176215000000	     -9.24137259869726970000	     -3.47852870288718210000	    -53.36561091228114200000	     -6.30072706518142670000	      0.00000000000016096912	     -0.00000000000041344173	     -9.95144037483047580000	      8.50066898470061180000	      5.57460678059147160000
      0.42766999999999999000	      1.27763016747922850000	      0.86613877002696915000	     -0.25516346534199907000	      0.53444026926800992000	     -4.32184592044829860000	      2.99073994623452280000	     21.26317458112015400000	      4.36146651854805080000	     -3.74558766817439760000	    -21.08526120202691000000	      0.42728399357516650000	      0.00000000000001314985	     -0.00000000000011109292	     -4.30345910605046100000	     -9.32909314225302570000	     -3.44475899285555580000	    -53.80334211482416200000	     -6.18130362397786560000	      0.00000000000016173944	     -0.00000000000041448396	     -9.92865627535225670000	      8.57100637839391230000	      5.76580640616896640000
      0.42867000000000000000	      1.27977485608977770000	      0.86623251117457645000	     -0.25485488404692769000	      0.53201624877791076000	     -4.42128689054004290000	      2.92080977216395970000	     21.15192282141220700000	      4.51648897331461630000	     -3.76785061413990440000	    -21.14008247174509900000	      0.58438541980295333000	      0.00000000000001328080	     -0.00000000000011190026	     -4.06399717515484490000	     -9.41289651004018420000	     -3.40397722231904830000	    -54.23560395741731800000	     -6.05197740836652280000	      0.00000000000016257386	     -0.00000000000041567125	     -9.90377319966196270000	      8.63841044230930420000	      5.95978430035262540000
      0.42967000000000000000	      1.28191748019219240000	      0.86632858781890099000	     -0.25454646347198118000	      0.52882518166105141000	     -4.52028389406435420000	      2.85114734679925030000	     21.03912309388233100000	      4.67068650501640810000	     -3.79031261339981910000	    -21.19091382816983700000	      0.74198965615265966000	      0.00000000000001342063	     -0.00000000000011274547	     -3.82306373253125150000	     -9.49539415257114610000	     -3.36085809828091350000	    -54.66604268002717500000	     -5.91935026795258420000	      0.00000000000016342963	     -0.00000000000041690689	     -9.87819046523430980000	      8.70483672963206170000	      6.15468828407167120000
      0.43067000000000000000	      1.28405792288276240000	      0.86642729377028571000	     -0.25423783387445814000	      0.52469880839084471000	     -4.61849070059684760000	      2.78127780159839010000	     20.92460738509359100000	      4.82383458005404540000	     -3.81208580259330710000	    -21.23690070681289700000	      0.89848274330427136000	      0.00000000000001356173	     -0.00000000000011358061	     -3.58075458058932620000	     -9.57611351986626860000	     -3.31602752978943640000	    -55.09405601461014600000	     -5.77997009222479270000	      0.00000000000016429110	     -0.00000000000041819721	     -9.85180497829622760000	      8.76982601603951300000	      6.35095923721493880000
      0.43167000000000000000	      1.28619182133779790000	      0.86653388764285089000	     -0.25392857720920570000	      0.51776651666059847000	     -4.71432691615388850000	      2.71078689688907870000	     20.80494373252826900000	      4.97383428509922250000	     -3.83179256158751610000	    -21.26835415211092300000	      1.05164238286160240000	      0.00000000000001370662	     -0.00000000000011438554	     -3.33431830069240660000	     -9.65149806145388390000	     -3.26606262793793830000	    -55.51479318511244500000	     -5.62033081055546460000	      0.00000000000016516965	     -0.00000000000041965157	     -9.82301123382685940000	      8.83050429970105630000	      6.55133109863086900000
      0.43267000000000000000	      1.28832571979283330000	      0.86664048151541617000	     -0.25361932054395320000	      0.51083422493035224000	     -4.81016313171092950000	      2.64029599217976680000	     20.68528007996294700000	      5.12383399014439880000	     -3.85149932058172520000	    -21.29980759740895400000	      1.20480202241893350000	      0.00000000000001385151	     -0.00000000000011519047	     -3.08788202079548710000	     -9.72688260304149740000	     -3.21609772608643980000	    -55.93553035561474500000	     -5.46069152888613550000	      0.00000000000016604819	     -0.00000000000042110594	     -9.79421748935748940000	      8.89118258336259970000	      6.75170296004679930000
      0.43367000000000000000	      1.29045348445402670000	      0.86675438502861080000	     -0.25330854088310301000	      0.50043186205387646000	     -4.90340195544648250000	      2.56803085404813600000	     20.56112786947886000000	      5.27077133289560870000	     -3.86747244975389260000	    -21.31614672843362300000	      1.35107619356660470000	      0.00000000000001398001	     -0.00000000000011591440	     -2.83743845197677350000	     -9.79686690460817290000	     -3.16339774912920290000	    -56.34816295677958200000	     -5.27163130750341140000	      0.00000000000016694053	     -0.00000000000042259643	     -9.76234544677506120000	      8.94730606126423390000	      6.95686645116097320000
      0.43467000000000000000	      1.29257920451727280000	      0.86687072508868201000	     -0.25299725355705355000	      0.48887280879532713000	     -4.99577498190820800000	      2.49517430477573310000	     20.43547947302185700000	      5.41668788821549900000	     -3.88220103565204950000	    -21.32744775470052200000	      1.49505520857772840000	      0.00000000000001410304	     -0.00000000000011661134	     -2.58565912018413170000	     -9.86505112616787020000	     -3.10978608047005520000	    -56.75809403483194200000	     -5.07276410621624580000	      0.00000000000016783748	     -0.00000000000042409896	     -9.72944730482161370000	      9.00191127057923520000	      7.16362715217455830000
      0.43567000000000000000	      1.29470314914219720000	      0.86698895518486896000	     -0.25268526313533396000	      0.47600117929846819000	     -5.08735633339166600000	      2.42151795641569740000	     20.30891452903705700000	      5.56173253992307700000	     -3.89553488355889370000	    -21.33454426393381800000	      1.63714484638510990000	      0.00000000000001422702	     -0.00000000000011731190	     -2.33250959355110150000	     -9.93169559300458890000	     -3.05587583771556440000	    -57.16536709236400800000	     -4.86573452821973880000	      0.00000000000016873538	     -0.00000000000042560834	     -9.69533209682871980000	      9.05514431251240200000	      7.37195661064603410000
      0.43667000000000000000	      1.29682176745215650000	      0.86711285538940341000	     -0.25237116342660398000	      0.45919182108669604000	     -5.17656265994033050000	      2.34546221079277210000	     20.17959994246888700000	      5.70416148079373020000	     -3.90468451749181480000	    -21.32902722206636200000	      1.77356635258128750000	      0.00000000000001435381	     -0.00000000000011802331	     -2.07524948239692230000	     -9.99372079567238810000	     -3.00106987267504840000	    -57.56466608833520100000	     -4.63421782009530590000	      0.00000000000016963616	     -0.00000000000042713825	     -9.65756569071750090000	      9.10426085230007760000	      7.58499234149116490000
      0.43767000000000000000	      1.29893859752324680000	      0.86723860254706253000	     -0.25205626102451817000	      0.44102367195462655000	     -5.26484942901337490000	      2.26850512715606810000	     20.04962192928567800000	      5.84559901360632580000	     -3.91233326242914090000	    -21.31990153748640900000	      1.90883001537647680000	      0.00000000000001447836	     -0.00000000000011872803	     -1.81661144277441950000	    -10.05418222676638400000	     -2.94623712312353890000	    -57.96100942492269300000	     -4.39728290017050760000	      0.00000000000017053586	     -0.00000000000042866489	     -9.61854943331364080000	      9.15189164644008460000	      7.79953379232727960000
      0.43867000000000000000	      1.30105006287773040000	      0.86736989056409552000	     -0.25173895054236506000	      0.41877915006166178000	     -5.35037752565956030000	      2.18884402947802670000	     19.91765363625735600000	      5.98406232224474530000	     -3.91547934037967770000	    -21.29994992476894600000	      2.04062014796869920000	      0.00000000000001459620	     -0.00000000000011941265	     -1.55383961774694310000	    -10.10995234313897500000	     -2.89132402003904780000	    -58.34848578335908100000	     -4.14409334484460420000	      0.00000000000017143233	     -0.00000000000043018171	     -9.57578362203185480000	      9.19506520363707660000	      8.01859240313634910000
      0.43967000000000001000	      1.30316152823221400000	      0.86750117858112852000	     -0.25142164006021189000	      0.39653462816869700000	     -5.43590562230574650000	      2.10918293179998530000	     19.78568534322903700000	      6.12252563088316480000	     -3.91862541833021400000	    -21.27999831205147900000	      2.17241028056092130000	      0.00000000000001471403	     -0.00000000000012009726	     -1.29106779271946670000	    -10.16572245951156500000	     -2.83641091695455620000	    -58.73596214179546800000	     -3.89090378951869950000	      0.00000000000017232879	     -0.00000000000043169852	     -9.53301781075006890000	      9.23823876083406860000	      8.23765101394541690000
